<svg xmlns="http://www.w3.org/2000/svg" width="217.71" height="51.072"><defs><style>.a{fill:#cbaa77}</style></defs><path class="a" d="M32.927 0L0 14.84v32.992h19.064a19.981 19.981 0 0 1-3.336-4.1H4.068V17.491L32.895 4.496l28.827 12.995v26.21h-11.6a19.947 19.947 0 0 1-3.336 4.1H65.85V14.84zm22.058 2.073v5.733l6.737 3.038V5.105z"/><path class="a" d="M32.927 51.072a17.911 17.911 0 1 1 17.911-17.909 17.912 17.912 0 0 1-17.911 17.909zm0-30.783a12.894 12.894 0 1 0 0-.032z"/><circle class="a" cx="2.513" cy="2.513" r="2.513" transform="translate(10.08 16.143)"/><path d="M94.934 9.328a11.66 11.66 0 0 1 5.694-1.386 10.871 10.871 0 0 1 8.246 3.615l.22.24 4.269-4.017-.2-.233a14.9 14.9 0 0 0-5.558-4.036 18.532 18.532 0 0 0-7.249-1.386 18.254 18.254 0 0 0-8.836 2.151 16.12 16.12 0 0 0-6.225 5.947 17.335 17.335 0 0 0 0 17.108 16.006 16.006 0 0 0 6.2 5.947 18.255 18.255 0 0 0 8.836 2.144 18.676 18.676 0 0 0 7.268-1.386 14.9 14.9 0 0 0 5.584-4.029l.2-.233-4.269-4.068-.227.24a10.772 10.772 0 0 1-8.24 3.66 11.659 11.659 0 0 1-5.694-1.386 10.045 10.045 0 0 1-3.887-3.848 11.8 11.8 0 0 1 0-11.194 10.046 10.046 0 0 1 3.868-3.85zm28.406-6.75h-6.543v32.39h23.139v-5.636h-16.6zm19.42 0h6.543v32.39h-6.543zm23.062 6.75a11.658 11.658 0 0 1 5.694-1.386 10.845 10.845 0 0 1 8.24 3.615l.227.24 4.269-4.017-.2-.233a14.9 14.9 0 0 0-5.558-4.036 18.53 18.53 0 0 0-7.249-1.386 18.251 18.251 0 0 0-8.835 2.151 16.07 16.07 0 0 0-6.225 5.947 17.334 17.334 0 0 0 0 17.108 15.915 15.915 0 0 0 6.2 5.947 18.255 18.255 0 0 0 8.836 2.144 18.677 18.677 0 0 0 7.281-1.386 14.893 14.893 0 0 0 5.584-4.029l.2-.233-4.269-4.068-.227.24a10.772 10.772 0 0 1-8.24 3.66 11.658 11.658 0 0 1-5.694-1.386 10 10 0 0 1-3.887-3.848 11.8 11.8 0 0 1 0-11.194 10.048 10.048 0 0 1 3.853-3.85zm37.488 7.786l13.655-14.536h-7.51l-15.23 15.8v-15.8h-6.54v32.39h6.543v-8.3l4.69-4.82 11.071 13.12h7.722zM85.308 41.576v.486h1.639v.842h-1.615v4.794h-1.024v-4.794h-.958v-.842h.958v-.5a1.782 1.782 0 0 1 .492-1.328 1.845 1.845 0 0 1 1.367-.492 2.593 2.593 0 0 1 .648.084 1.7 1.7 0 0 1 .511.246l-.311.777a1.3 1.3 0 0 0-.784-.265c-.618 0-.923.331-.923.992zm3.39 5.817a2.656 2.656 0 0 1-1.043-1.03 2.887 2.887 0 0 1-.382-1.484 2.922 2.922 0 0 1 .382-1.483 2.593 2.593 0 0 1 1.043-1.017 3.24 3.24 0 0 1 3.019 0 2.67 2.67 0 0 1 1.043 1.017 3.115 3.115 0 0 1 0 2.967 2.745 2.745 0 0 1-1.043 1.03 3.238 3.238 0 0 1-3.019 0zm2.488-.771a1.772 1.772 0 0 0 .648-.706 2.134 2.134 0 0 0 .246-1.036 2.172 2.172 0 0 0-.246-1.036 1.738 1.738 0 0 0-.648-.693 2.054 2.054 0 0 0-1.943 0 1.794 1.794 0 0 0-.68.693 2.1 2.1 0 0 0-.246 1.036 2.06 2.06 0 0 0 .246 1.036 1.827 1.827 0 0 0 .68.706 2.055 2.055 0 0 0 1.948 0zm6.339.745a1.538 1.538 0 0 1-.551.3 2.38 2.38 0 0 1-.648.1 1.807 1.807 0 0 1-1.3-.453 1.757 1.757 0 0 1-.466-1.3v-3.1h-.959v-.842h.959v-1.228h1.023v1.231h1.613v.842h-1.613v3.051a.971.971 0 0 0 .227.7.828.828 0 0 0 .648.246 1.21 1.21 0 0 0 .8-.266zm1.86.026a2.721 2.721 0 0 1-1.049-1.03 2.953 2.953 0 0 1-.376-1.484 2.985 2.985 0 0 1 .376-1.483 2.64 2.64 0 0 1 1.049-1.017 3.241 3.241 0 0 1 3.019 0 2.592 2.592 0 0 1 1.037 1.017 2.924 2.924 0 0 1 .382 1.483 2.887 2.887 0 0 1-.382 1.484 2.684 2.684 0 0 1-1.036 1.03 3.238 3.238 0 0 1-3.02 0zm2.481-.771a1.789 1.789 0 0 0 .648-.706 2.134 2.134 0 0 0 .24-1.036 2.164 2.164 0 0 0-.24-1.036 1.746 1.746 0 0 0-.648-.693 2.042 2.042 0 0 0-1.943 0 1.8 1.8 0 0 0-.68.693 2.1 2.1 0 0 0-.253 1.036 2.071 2.071 0 0 0 .253 1.037 1.829 1.829 0 0 0 .68.706 2.042 2.042 0 0 0 1.943-.001zm8.744-4.561v4.872a2.914 2.914 0 0 1-.732 2.19 3.057 3.057 0 0 1-2.189.706 5.362 5.362 0 0 1-1.522-.22 2.938 2.938 0 0 1-1.166-.648l.486-.784a3.036 3.036 0 0 0 .972.531 3.609 3.609 0 0 0 1.2.2 2.016 2.016 0 0 0 1.464-.466 1.944 1.944 0 0 0 .473-1.425v-.447a2.29 2.29 0 0 1-.887.648 3.012 3.012 0 0 1-1.147.214 3.106 3.106 0 0 1-1.457-.344 2.528 2.528 0 0 1-1.03-.971 2.908 2.908 0 0 1 0-2.837 2.5 2.5 0 0 1 1.03-.959 3.1 3.1 0 0 1 1.457-.343 2.977 2.977 0 0 1 1.186.233 2.177 2.177 0 0 1 .9.693v-.875zm-1.943 4.275a1.727 1.727 0 0 0 .693-.648 1.863 1.863 0 0 0 .246-.952 1.717 1.717 0 0 0-.544-1.3 2.183 2.183 0 0 0-2.792 0 1.716 1.716 0 0 0-.544 1.3 1.856 1.856 0 0 0 .246.952 1.727 1.727 0 0 0 .693.648 2.267 2.267 0 0 0 2.002 0zm5.449-4.074a2.9 2.9 0 0 1 1.3-.252v.991h-.233a1.749 1.749 0 0 0-1.3.493 1.988 1.988 0 0 0-.473 1.412v2.805h-1.017v-5.636h.978v.946a1.781 1.781 0 0 1 .745-.759zm6.345.324a2.213 2.213 0 0 1 .648 1.71v3.4h-.965v-.745a1.607 1.607 0 0 1-.732.6 2.689 2.689 0 0 1-1.121.207 2.358 2.358 0 0 1-1.516-.454 1.574 1.574 0 0 1 0-2.4 2.693 2.693 0 0 1 1.723-.447h1.613v-.207a1.3 1.3 0 0 0-.382-1.011 1.607 1.607 0 0 0-1.127-.349 3.007 3.007 0 0 0-.978.168 2.388 2.388 0 0 0-.8.44l-.427-.764a3.047 3.047 0 0 1 1.043-.538 4.344 4.344 0 0 1 1.3-.188 2.552 2.552 0 0 1 1.721.578zm-1.017 4.126a1.422 1.422 0 0 0 .615-.738v-.784h-1.574c-.862 0-1.3.292-1.3.875a.791.791 0 0 0 .33.648 1.518 1.518 0 0 0 .913.246 1.9 1.9 0 0 0 1.019-.246zm4.518-5.136v.486h1.639v.842h-1.619v4.794h-1.017v-4.794h-.959v-.842h.959v-.5a1.8 1.8 0 0 1 .486-1.328 1.871 1.871 0 0 1 1.373-.492 2.58 2.58 0 0 1 .648.084 1.613 1.613 0 0 1 .505.246l-.3.778a1.3 1.3 0 0 0-.79-.266q-.924-.002-.925.992zm3.472-.791a.664.664 0 0 1 .492-1.133.69.69 0 0 1 .5.181.691.691 0 0 1-.991.952zm0 1.3h1.017v5.636h-1.017zm6.665.502a2.216 2.216 0 0 1 .648 1.71v3.4h-.965v-.745a1.608 1.608 0 0 1-.732.6 2.708 2.708 0 0 1-1.121.207 2.339 2.339 0 0 1-1.516-.453 1.464 1.464 0 0 1-.57-1.2 1.491 1.491 0 0 1 .544-1.2 2.7 2.7 0 0 1 1.723-.447h1.613v-.207a1.3 1.3 0 0 0-.382-1.011 1.607 1.607 0 0 0-1.127-.35 2.979 2.979 0 0 0-.978.169 2.48 2.48 0 0 0-.81.44l-.421-.765a3.053 3.053 0 0 1 1.043-.538 4.361 4.361 0 0 1 1.3-.188 2.552 2.552 0 0 1 1.751.578zm-1.017 4.126a1.415 1.415 0 0 0 .648-.739v-.784h-1.576c-.862 0-1.3.292-1.3.874a.791.791 0 0 0 .33.648 1.516 1.516 0 0 0 .913.246 1.892 1.892 0 0 0 .978-.246zm11.085-4.062a2.455 2.455 0 0 1 .648 1.827v3.239h-1.024v-3.122a1.724 1.724 0 0 0-.395-1.237 1.485 1.485 0 0 0-1.127-.415 1.755 1.755 0 0 0-1.3.486 1.9 1.9 0 0 0-.48 1.386v2.9h-1.012v-5.638h.978v.856a1.941 1.941 0 0 1 .836-.648 2.906 2.906 0 0 1 1.192-.233 2.333 2.333 0 0 1 1.684.599zm2.334-1.869a.664.664 0 0 1 .5-1.13.692.692 0 0 1 .5.181.691.691 0 0 1-.991.952zm0 1.3h1.017v5.636h-1.017zm7.887 3.16h-4.573a1.776 1.776 0 0 0 .648 1.192 2.129 2.129 0 0 0 1.393.453 2.091 2.091 0 0 0 1.626-.648l.564.648a2.519 2.519 0 0 1-.952.648 3.326 3.326 0 0 1-1.3.234 3.393 3.393 0 0 1-1.587-.363 2.64 2.64 0 0 1-1.068-1.03 2.924 2.924 0 0 1-.376-1.49 2.973 2.973 0 0 1 .369-1.477 2.547 2.547 0 0 1 1-1.024 2.881 2.881 0 0 1 1.457-.369 2.8 2.8 0 0 1 1.438.369 2.588 2.588 0 0 1 .991 1.024 3.189 3.189 0 0 1 .357 1.509 2.126 2.126 0 0 1 .013.324zm-3.99-1.944a1.81 1.81 0 0 0-.583 1.173h3.621a1.807 1.807 0 0 0-.583-1.166 1.737 1.737 0 0 0-1.224-.453 1.771 1.771 0 0 0-1.231.444zm7.061-1.035a2.871 2.871 0 0 1 1.3-.253v.991h-.233a1.743 1.743 0 0 0-1.3.493 1.945 1.945 0 0 0-.473 1.412v2.8h-1.023V42.07h.978v.946a1.8 1.8 0 0 1 .751-.753zm7.645-.202v5.635h-.972v-.849a1.943 1.943 0 0 1-.81.648 2.51 2.51 0 0 1-1.1.24 2.463 2.463 0 0 1-1.775-.648 2.416 2.416 0 0 1-.648-1.834v-3.237h1.017v3.129a1.732 1.732 0 0 0 .4 1.237 1.463 1.463 0 0 0 1.127.421 1.672 1.672 0 0 0 1.3-.492 1.943 1.943 0 0 0 .466-1.38v-2.915zm2.761 5.332a2.754 2.754 0 0 1-1.062-1.03 2.886 2.886 0 0 1-.382-1.483 2.921 2.921 0 0 1 .382-1.484 2.674 2.674 0 0 1 1.063-1.017 3.13 3.13 0 0 1 1.561-.376 2.924 2.924 0 0 1 1.367.311 2.143 2.143 0 0 1 .933.894l-.777.5a1.79 1.79 0 0 0-.647-.609 1.878 1.878 0 0 0-.875-.2 1.946 1.946 0 0 0-.991.246 1.747 1.747 0 0 0-.693.693 2.333 2.333 0 0 0 0 2.086 1.757 1.757 0 0 0 .693.7 2 2 0 0 0 .991.24 1.872 1.872 0 0 0 .875-.2 1.827 1.827 0 0 0 .648-.6l.777.486a2.233 2.233 0 0 1-.933.9 2.923 2.923 0 0 1-1.367.311 3.13 3.13 0 0 1-1.561-.363zm9.722-4.742a2.456 2.456 0 0 1 .648 1.827v3.239h-1.03v-3.12a1.726 1.726 0 0 0-.4-1.237 1.482 1.482 0 0 0-1.127-.415 1.757 1.757 0 0 0-1.3.486 1.9 1.9 0 0 0-.479 1.386v2.9h-1.009v-7.91h1.017v3.051a2.17 2.17 0 0 1 .835-.648 3.006 3.006 0 0 1 1.166-.207 2.33 2.33 0 0 1 1.679.648zm3.316 4.742a2.725 2.725 0 0 1-1.05-1.03 2.888 2.888 0 0 1-.375-1.484 2.922 2.922 0 0 1 .375-1.483 2.644 2.644 0 0 1 1.05-1.017 3.237 3.237 0 0 1 3.012 0 2.62 2.62 0 0 1 1.043 1.017 2.922 2.922 0 0 1 .376 1.483 2.889 2.889 0 0 1-.376 1.484 2.7 2.7 0 0 1-1.043 1.03 3.24 3.24 0 0 1-3.012 0zm2.481-.771a1.769 1.769 0 0 0 .648-.706 2.063 2.063 0 0 0 .246-1.037 2.1 2.1 0 0 0-.246-1.036 1.734 1.734 0 0 0-.648-.693 2.042 2.042 0 0 0-1.943 0 1.71 1.71 0 0 0-.647.693 2.092 2.092 0 0 0-.253 1.036 2.065 2.065 0 0 0 .253 1.037 1.743 1.743 0 0 0 .647.706 2.041 2.041 0 0 0 1.943 0zm11.992-3.971a2.48 2.48 0 0 1 .648 1.833v3.239H195v-3.129a1.783 1.783 0 0 0-.375-1.237 1.4 1.4 0 0 0-1.082-.414 1.613 1.613 0 0 0-1.231.486 1.945 1.945 0 0 0-.46 1.387v2.9h-1.043v-3.123a1.813 1.813 0 0 0-.376-1.237 1.412 1.412 0 0 0-1.082-.414 1.633 1.633 0 0 0-1.237.486 1.947 1.947 0 0 0-.453 1.387v2.9h-1.025V42.08h.978v.842a2.031 2.031 0 0 1 .809-.647 2.754 2.754 0 0 1 1.14-.227 2.5 2.5 0 0 1 1.166.266 1.835 1.835 0 0 1 .79.777 2.137 2.137 0 0 1 .887-.764 2.833 2.833 0 0 1 1.3-.279 2.3 2.3 0 0 1 1.67.603zm3.303 4.742a2.718 2.718 0 0 1-1.05-1.03 3.116 3.116 0 0 1 0-2.967 2.64 2.64 0 0 1 1.05-1.017 3.236 3.236 0 0 1 3.012 0 2.666 2.666 0 0 1 1.043 1.017 2.919 2.919 0 0 1 .376 1.483 2.889 2.889 0 0 1-.376 1.484 2.748 2.748 0 0 1-1.043 1.03 3.239 3.239 0 0 1-3.012 0zm2.481-.771a1.767 1.767 0 0 0 .647-.706 2.132 2.132 0 0 0 .247-1.037 2.164 2.164 0 0 0-.247-1.036 1.733 1.733 0 0 0-.647-.693 1.885 1.885 0 0 0-.972-.246 1.945 1.945 0 0 0-.978.246 1.793 1.793 0 0 0-.68.693 2.169 2.169 0 0 0-.246 1.036 2.132 2.132 0 0 0 .246 1.037 1.83 1.83 0 0 0 .68.706 1.978 1.978 0 0 0 .978.246 1.94 1.94 0 0 0 .985-.246zm3.679.952a2.809 2.809 0 0 1-1-.472l.421-.8a3.087 3.087 0 0 0 .907.421 3.6 3.6 0 0 0 1.076.161c.894 0 1.341-.252 1.341-.764a.519.519 0 0 0-.182-.408 1.175 1.175 0 0 0-.453-.214c-.182-.046-.441-.1-.771-.156a7.955 7.955 0 0 1-1.115-.246 1.711 1.711 0 0 1-.738-.466 1.327 1.327 0 0 1-.3-.927 1.458 1.458 0 0 1 .647-1.231 2.9 2.9 0 0 1 1.685-.466 4.787 4.787 0 0 1 1.127.136 3.13 3.13 0 0 1 .92.376l-.434.81a2.93 2.93 0 0 0-1.626-.447 1.95 1.95 0 0 0-.991.207.649.649 0 0 0-.337.564.557.557 0 0 0 .188.441 1.287 1.287 0 0 0 .473.233c.188.052.453.1.8.168a8.415 8.415 0 0 1 1.1.253 1.571 1.571 0 0 1 .713.453 1.224 1.224 0 0 1 .3.887 1.394 1.394 0 0 1-.648 1.218 3.063 3.063 0 0 1-1.781.453 4.538 4.538 0 0 1-1.322-.184zm2.034-7.715h1.3l-1.814 1.386h-.959zm3.965 7.534a2.733 2.733 0 0 1-1.056-1.03 2.89 2.89 0 0 1-.383-1.483 2.922 2.922 0 0 1 .383-1.483 2.658 2.658 0 0 1 1.056-1.017 3.174 3.174 0 0 1 1.542-.369 2.951 2.951 0 0 1 1.367.311 2.165 2.165 0 0 1 .927.894l-.777.5a1.722 1.722 0 0 0-.648-.609 1.88 1.88 0 0 0-.874-.2 1.978 1.978 0 0 0-1 .246 1.722 1.722 0 0 0-.687.693 2.281 2.281 0 0 0 0 2.085 1.742 1.742 0 0 0 .687.7 2.044 2.044 0 0 0 1 .24 1.881 1.881 0 0 0 .874-.2 1.762 1.762 0 0 0 .648-.6l.777.486a2.255 2.255 0 0 1-.927.9 2.951 2.951 0 0 1-1.367.311 3.17 3.17 0 0 1-1.542-.375zm5.007-6.611a.664.664 0 0 1 .492-1.133.707.707 0 0 1 .5.181.673.673 0 0 1 0 .946.72.72 0 0 1-.992 0zm0 1.3h1.024v5.636h-1.024z" fill="#fff"/></svg>